<?xml version="1.0" encoding="UTF-8"?><svg id="Layer_2" xmlns="http://www.w3.org/2000/svg" viewBox="0 0 379.92 344.63"><defs><style>.cls-1{fill:#191919;}</style></defs><g id="Layer_1-2"><g><path class="cls-1" d="m379.92,89.97c-.88,3.31-1.62,6.67-2.55,9.97-6.72,23.78-28.37,40.44-53.08,40.78-7.83.11-15.67.03-23.69.02-.9,0-1.69.63-1.88,1.51-.51,2.31-1.01,4.57-1.53,6.96-.25,1.14-1.45,1.8-2.55,1.39-27.23-10.15-54.25-20.22-81.56-30.4-.99-.37-1.5-1.48-1.13-2.47,2.27-6.1,4.46-12.03,6.66-17.94,11.24-30.21,22.51-60.41,33.69-90.64,1.67-4.51,4.18-7.93,9.12-8.92,6.26-1.26,11.85,2.75,13.28,9.59,2.07,9.87,4.03,19.76,6.05,29.64.12.57.26,1.14.42,1.79.22.85.99,1.45,1.87,1.45,4.86,0,9.69,0,14.52,0,19.85,0,32.28,9.94,36.67,29.28,0,0,0,0,0,.01.2.84.99,1.4,1.85,1.4h20.18c2.74,0,5.51.21,8.22-.04,5.98-.56,10.62,1.15,13.69,5.78.6,3.77,1.13,7.07,1.73,10.84Z"/><path class="cls-1" d="m53.17,159.41c-8.2-1.4-16.45-1.76-23.98-4.29C8.8,148.28-2.98,127.03.66,105.36c3.48-20.69,22.22-36.71,43.36-36.92,11.22-.11,22.45-.05,33.68-.01,7,.03,11.98,4.69,12.03,11.12.05,6.41-4.95,11.26-11.87,11.3-10.73.07-21.45-.01-32.18.03-13.18.05-23.2,9.64-23.29,22.24-.09,12.78,9.92,22.56,23.27,22.66,8.95.06,17.91.07,26.86-.04,1.58-.02,3.15-.43,4.51-1.25,11.1-6.65,23.08-9.95,36.01-9.93,30.56.03,61.12,0,91.68.04,1.58,0,3.26.2,4.73.74,28.02,10.39,56.01,20.84,84,31.29.69.26,1.35.6,2.43,1.08-1.47,7.41-2.93,14.83-4.41,22.25-3.03,15.14-6.09,30.28-9.09,45.43-.29,1.45-.25,2.98-.25,4.47-.01,33.8,0,67.61-.01,101.41,0,9.79-5.03,14.06-15.58,13.28-12.3-.91-24.64-.48-36.96.06-10.21.45-14.83-3.74-14.83-13.54,0-26.44,0-52.89,0-79.33h0c0-2.63-2.01-4.83-4.63-5.06-32.55-2.93-65-5.84-97.92-8.8v4.22c0,29.44,0,58.88,0,88.32,0,7.44-6.03,13.46-13.47,13.47-13.72,0-27.44.02-41.16,0-8.25-.02-12.73-4.48-12.73-12.7-.01-46.15,0-92.3-.01-138.45,0-11.31,2.5-21.98,7.73-32.01.33-.64.62-1.29.62-1.29Z"/></g></g></svg>